<svg width="437" height="112" viewBox="0 0 437 112" fill="none" xmlns="http://www.w3.org/2000/svg">
    <g clip-path="url(#clip0_43_32)">
        <path d="M83.4514 94C90.3905 89.4138 120.879 53.8399 88.0775 28.0324C81.1554 22.5862 76.5293 20.3218 68.9069 18.83C60.1857 17.1231 51.06 18.0658 43.0333 21.5028C35.0065 24.9399 28.5577 30.6662 24.7493 37.7383C20.9408 44.8105 20 52.8065 22.0818 60.4089C24.1635 68.0114 29.1437 74.7667 36.2018 79.5619C43.2599 84.3572 51.9747 86.9062 60.9106 86.789C69.8464 86.6719 76.5608 84.54 83.4514 79.5619" stroke="black" stroke-width="6"/>
        <path d="M134.192 90V25.93H145.372L169.366 58.524H164.034L187.512 25.93H198.692V90H186.91V39.26L191.468 40.378L167.13 72.8H165.754L142.018 40.378L145.888 39.26V90H134.192ZM224.198 91.032C220.93 91.032 218.092 90.4873 215.684 89.398C213.276 88.3087 211.412 86.7607 210.094 84.754C208.775 82.69 208.116 80.3107 208.116 77.616C208.116 75.036 208.689 72.7427 209.836 70.736C210.982 68.672 212.76 66.952 215.168 65.576C217.576 64.2 220.614 63.2253 224.284 62.652L239.592 60.158V68.758L226.434 70.994C224.198 71.3953 222.535 72.112 221.446 73.144C220.356 74.176 219.812 75.5233 219.812 77.186C219.812 78.7913 220.414 80.0813 221.618 81.056C222.879 81.9733 224.427 82.432 226.262 82.432C228.612 82.432 230.676 81.9447 232.454 80.97C234.288 79.938 235.693 78.5333 236.668 76.756C237.7 74.9787 238.216 73.0293 238.216 70.908V58.868C238.216 56.8613 237.413 55.1987 235.808 53.88C234.26 52.504 232.196 51.816 229.616 51.816C227.208 51.816 225.058 52.4753 223.166 53.794C221.331 55.0553 219.984 56.7467 219.124 58.868L209.922 54.396C210.839 51.9307 212.272 49.8093 214.222 48.032C216.228 46.1973 218.579 44.764 221.274 43.732C223.968 42.7 226.892 42.184 230.046 42.184C233.887 42.184 237.27 42.9007 240.194 44.334C243.118 45.71 245.382 47.6593 246.988 50.182C248.65 52.6473 249.482 55.5427 249.482 58.868V90H238.818V82.002L241.226 81.83C240.022 83.8367 238.588 85.528 236.926 86.904C235.263 88.2227 233.371 89.2547 231.25 90C229.128 90.688 226.778 91.032 224.198 91.032ZM280.383 90.516C275.108 90.516 271.009 89.0827 268.085 86.216C265.218 83.292 263.785 79.1927 263.785 73.918V53.278H255.701V43.216H256.561C258.854 43.216 260.631 42.614 261.893 41.41C263.154 40.206 263.785 38.4573 263.785 36.164V32.552H275.051V43.216H285.801V53.278H275.051V73.316C275.051 74.864 275.309 76.1827 275.825 77.272C276.398 78.3613 277.258 79.1927 278.405 79.766C279.609 80.3393 281.128 80.626 282.963 80.626C283.364 80.626 283.823 80.5973 284.339 80.54C284.912 80.4827 285.457 80.4253 285.973 80.368V90C285.17 90.1147 284.253 90.2293 283.221 90.344C282.189 90.4587 281.243 90.516 280.383 90.516ZM308.602 91.032C305.334 91.032 302.496 90.4873 300.088 89.398C297.68 88.3087 295.817 86.7607 294.498 84.754C293.179 82.69 292.52 80.3107 292.52 77.616C292.52 75.036 293.093 72.7427 294.24 70.736C295.387 68.672 297.164 66.952 299.572 65.576C301.98 64.2 305.019 63.2253 308.688 62.652L323.996 60.158V68.758L310.838 70.994C308.602 71.3953 306.939 72.112 305.85 73.144C304.761 74.176 304.216 75.5233 304.216 77.186C304.216 78.7913 304.818 80.0813 306.022 81.056C307.283 81.9733 308.831 82.432 310.666 82.432C313.017 82.432 315.081 81.9447 316.858 80.97C318.693 79.938 320.097 78.5333 321.072 76.756C322.104 74.9787 322.62 73.0293 322.62 70.908V58.868C322.62 56.8613 321.817 55.1987 320.212 53.88C318.664 52.504 316.6 51.816 314.02 51.816C311.612 51.816 309.462 52.4753 307.57 53.794C305.735 55.0553 304.388 56.7467 303.528 58.868L294.326 54.396C295.243 51.9307 296.677 49.8093 298.626 48.032C300.633 46.1973 302.983 44.764 305.678 43.732C308.373 42.7 311.297 42.184 314.45 42.184C318.291 42.184 321.674 42.9007 324.598 44.334C327.522 45.71 329.787 47.6593 331.392 50.182C333.055 52.6473 333.886 55.5427 333.886 58.868V90H323.222V82.002L325.63 81.83C324.426 83.8367 322.993 85.528 321.33 86.904C319.667 88.2227 317.775 89.2547 315.654 90C313.533 90.688 311.182 91.032 308.602 91.032ZM344.299 90V43.216H354.877V52.418L354.017 50.784C355.106 47.9747 356.883 45.8533 359.349 44.42C361.871 42.9293 364.795 42.184 368.121 42.184C371.561 42.184 374.599 42.9293 377.237 44.42C379.931 45.9107 382.024 48.0033 383.515 50.698C385.005 53.3353 385.751 56.4027 385.751 59.9V90H374.485V62.566C374.485 60.502 374.083 58.7247 373.281 57.234C372.478 55.7433 371.36 54.5967 369.927 53.794C368.551 52.934 366.917 52.504 365.025 52.504C363.19 52.504 361.556 52.934 360.123 53.794C358.689 54.5967 357.571 55.7433 356.769 57.234C355.966 58.7247 355.565 60.502 355.565 62.566V90H344.299ZM395.277 90V43.216H406.543V90H395.277ZM395.277 37.97V25.93H406.543V37.97H395.277Z" fill="black"/>
    </g>
    <defs>
    <clipPath id="clip0_43_32">
        <rect width="437" height="112" fill="white"/>
    </clipPath>
    </defs>
</svg>
