<svg width="123" height="35" viewBox="0 0 123 35" fill="none" xmlns="http://www.w3.org/2000/svg">
<path d="M36.728 26V8.12H39.848L46.544 17.216H45.056L51.608 8.12H54.728V26H51.44V11.84L52.712 12.152L45.92 21.2H45.536L38.912 12.152L39.992 11.84V26H36.728ZM61.8459 26.288C60.9339 26.288 60.1419 26.136 59.4699 25.832C58.7979 25.528 58.2779 25.096 57.9099 24.536C57.5419 23.96 57.3579 23.296 57.3579 22.544C57.3579 21.824 57.5179 21.184 57.8379 20.624C58.1579 20.048 58.6539 19.568 59.3259 19.184C59.9979 18.8 60.8459 18.528 61.8699 18.368L66.1419 17.672V20.072L62.4699 20.696C61.8459 20.808 61.3819 21.008 61.0779 21.296C60.7739 21.584 60.6219 21.96 60.6219 22.424C60.6219 22.872 60.7899 23.232 61.1259 23.504C61.4779 23.76 61.9099 23.888 62.4219 23.888C63.0779 23.888 63.6539 23.752 64.1499 23.48C64.6619 23.192 65.0539 22.8 65.3259 22.304C65.6139 21.808 65.7579 21.264 65.7579 20.672V17.312C65.7579 16.752 65.5339 16.288 65.0859 15.92C64.6539 15.536 64.0779 15.344 63.3579 15.344C62.6859 15.344 62.0859 15.528 61.5579 15.896C61.0459 16.248 60.6699 16.72 60.4299 17.312L57.8619 16.064C58.1179 15.376 58.5179 14.784 59.0619 14.288C59.6219 13.776 60.2779 13.376 61.0299 13.088C61.7819 12.8 62.5979 12.656 63.4779 12.656C64.5499 12.656 65.4939 12.856 66.3099 13.256C67.1259 13.64 67.7579 14.184 68.2059 14.888C68.6699 15.576 68.9019 16.384 68.9019 17.312V26H65.9259V23.768L66.5979 23.72C66.2619 24.28 65.8619 24.752 65.3979 25.136C64.9339 25.504 64.4059 25.792 63.8139 26C63.2219 26.192 62.5659 26.288 61.8459 26.288ZM77.5254 26.144C76.0534 26.144 74.9094 25.744 74.0934 24.944C73.2934 24.128 72.8934 22.984 72.8934 21.512V15.752H70.6374V12.944H70.8774C71.5174 12.944 72.0134 12.776 72.3654 12.44C72.7174 12.104 72.8934 11.616 72.8934 10.976V9.968H76.0374V12.944H79.0374V15.752H76.0374V21.344C76.0374 21.776 76.1094 22.144 76.2534 22.448C76.4134 22.752 76.6534 22.984 76.9734 23.144C77.3094 23.304 77.7334 23.384 78.2454 23.384C78.3574 23.384 78.4854 23.376 78.6294 23.36C78.7894 23.344 78.9414 23.328 79.0854 23.312V26C78.8614 26.032 78.6054 26.064 78.3174 26.096C78.0294 26.128 77.7654 26.144 77.5254 26.144ZM85.4006 26.288C84.4886 26.288 83.6966 26.136 83.0246 25.832C82.3526 25.528 81.8326 25.096 81.4646 24.536C81.0966 23.96 80.9126 23.296 80.9126 22.544C80.9126 21.824 81.0726 21.184 81.3926 20.624C81.7126 20.048 82.2086 19.568 82.8806 19.184C83.5526 18.8 84.4006 18.528 85.4246 18.368L89.6966 17.672V20.072L86.0246 20.696C85.4006 20.808 84.9366 21.008 84.6326 21.296C84.3286 21.584 84.1766 21.96 84.1766 22.424C84.1766 22.872 84.3446 23.232 84.6806 23.504C85.0326 23.76 85.4646 23.888 85.9766 23.888C86.6326 23.888 87.2086 23.752 87.7046 23.48C88.2166 23.192 88.6086 22.8 88.8806 22.304C89.1686 21.808 89.3126 21.264 89.3126 20.672V17.312C89.3126 16.752 89.0886 16.288 88.6406 15.92C88.2086 15.536 87.6326 15.344 86.9126 15.344C86.2406 15.344 85.6406 15.528 85.1126 15.896C84.6006 16.248 84.2246 16.72 83.9846 17.312L81.4166 16.064C81.6726 15.376 82.0726 14.784 82.6166 14.288C83.1766 13.776 83.8326 13.376 84.5846 13.088C85.3366 12.8 86.1526 12.656 87.0326 12.656C88.1046 12.656 89.0486 12.856 89.8646 13.256C90.6806 13.64 91.3126 14.184 91.7606 14.888C92.2246 15.576 92.4566 16.384 92.4566 17.312V26H89.4806V23.768L90.1526 23.72C89.8166 24.28 89.4166 24.752 88.9526 25.136C88.4886 25.504 87.9606 25.792 87.3686 26C86.7766 26.192 86.1206 26.288 85.4006 26.288ZM95.3624 26V12.944H98.3144V15.512L98.0744 15.056C98.3784 14.272 98.8744 13.68 99.5624 13.28C100.266 12.864 101.082 12.656 102.01 12.656C102.97 12.656 103.818 12.864 104.554 13.28C105.306 13.696 105.89 14.28 106.306 15.032C106.722 15.768 106.93 16.624 106.93 17.6V26H103.786V18.344C103.786 17.768 103.674 17.272 103.45 16.856C103.226 16.44 102.914 16.12 102.514 15.896C102.13 15.656 101.674 15.536 101.146 15.536C100.634 15.536 100.178 15.656 99.7784 15.896C99.3784 16.12 99.0664 16.44 98.8424 16.856C98.6184 17.272 98.5064 17.768 98.5064 18.344V26H95.3624ZM109.589 26V12.944H112.733V26H109.589ZM109.589 11.48V8.12H112.733V11.48H109.589Z" fill="black"/>
<path d="M6.98608 33C4.79858 31.5417 -4.81275 17.2298 5.52775 9.02338C7.70991 7.29159 9.16824 6.57155 11.5712 6.09717C14.3205 5.5544 17.1973 5.85417 19.7277 6.9471C22.2581 8.04003 24.2911 9.8609 25.4916 12.1097C26.6922 14.3585 26.9888 16.9011 26.3326 19.3186C25.6763 21.736 24.1063 23.8841 21.8813 25.4089C19.6563 26.9337 16.909 27.7443 14.092 27.707C11.275 27.6698 9.15832 26.9919 6.98608 25.4089" stroke="black" stroke-width="1.5"/>
</svg>
