<svg width="24" height="32" viewBox="0 0 24 32" fill="none" xmlns="http://www.w3.org/2000/svg">
<path d="M11.9968 3.13391C11.6674 3.1361 11.3384 3.15585 11.0112 3.19306C9.19622 3.40472 7.4909 4.17161 6.12821 5.38892C4.76548 6.60628 3.81186 8.2147 3.39767 9.99443C2.98348 11.7742 3.12892 13.6384 3.81411 15.3323C4.4993 17.0263 5.69082 18.4673 7.22585 19.4586L7.2272 19.4595C7.50318 19.6428 7.72943 19.8916 7.88572 20.1837C8.04197 20.4757 8.12341 20.8019 8.12278 21.1332V21.1331H7.99824L8.12277 21.1334L11.9968 3.13391ZM11.9968 3.13391C13.9107 3.13683 15.7723 3.75857 17.3039 4.90632C18.8355 6.05418 19.9549 7.6666 20.4949 9.50289C21.035 11.3392 20.9667 13.3009 20.3002 15.0952C19.6338 16.8893 18.4052 18.4198 16.7976 19.4584C16.5151 19.6372 16.2822 19.8842 16.1201 20.1766C15.958 20.4692 15.8721 20.7979 15.8702 21.1325V21.1331L15.8702 25.0019L15.8702 25.0025C15.873 25.5455 15.7615 26.0831 15.5431 26.5802C15.3246 27.0773 15.0041 27.523 14.6023 27.8883C14.2005 28.2536 13.7264 28.5303 13.2107 28.7005C12.6957 28.8705 12.1508 28.9304 11.6111 28.8765L11.9968 3.13391ZM11.4119 31.1241L11.4193 31.125H11.4267H11.9965C13.6204 31.125 15.1779 30.4799 16.3262 29.3316C17.4745 28.1833 18.1196 26.6259 18.1196 25.0019V21.2807C20.1011 19.9738 21.6131 18.0669 22.4334 15.8382C23.2616 13.5883 23.3405 11.1311 22.6585 8.83264C21.9764 6.53422 20.5699 4.51774 18.6486 3.08374C16.7273 1.64974 14.394 0.875 11.9965 0.875C9.59903 0.875 7.26574 1.64974 5.3444 3.08374C3.42307 4.51774 2.01656 6.53422 1.33452 8.83264C0.652487 11.1311 0.731435 13.5883 1.5596 15.8382C2.37994 18.0669 3.89191 19.9738 5.87341 21.2807V24.791C5.85011 26.3445 6.40318 27.8515 7.42586 29.0211C8.44875 30.1909 9.86886 30.9401 11.4119 31.1241Z" fill="#FABB18" stroke="#FABB18" stroke-width="0.25"/>
<path d="M6.99805 22.1279H6.87305V22.2529V24.2523V24.3773H6.99805H16.9949H17.1199V24.2523V22.2529V22.1279H16.9949H6.99805Z" fill="#FABB18" stroke="#FABB18" stroke-width="0.25"/>
<path d="M14.9958 14.8804H8.99773C8.37658 14.8804 7.87305 15.3839 7.87305 16.0051C7.87305 16.6262 8.37658 17.1297 8.99773 17.1297H14.9958C15.617 17.1297 16.1205 16.6262 16.1205 16.0051C16.1205 15.3839 15.617 14.8804 14.9958 14.8804Z" fill="#FABB18" stroke="#FABB18" stroke-width="0.25"/>
<path d="M10.9971 15.1301H10.8721V15.2551V23.2526V23.3776H10.9971H12.9964H13.1214V23.2526V15.2551V15.1301H12.9964H10.9971Z" fill="#FABB18" stroke="#FABB18" stroke-width="0.25"/>
</svg>
