<svg width="30" height="30" viewBox="0 0 30 30" fill="none" xmlns="http://www.w3.org/2000/svg">
<path d="M8.25 21C8.84674 21 9.41903 20.7629 9.84099 20.341C10.2629 19.919 10.5 19.3467 10.5 18.75C10.5073 18.6752 10.5073 18.5998 10.5 18.525L14.685 14.34H15.03H15.375L17.79 16.755C17.79 16.755 17.79 16.83 17.79 16.875C17.79 17.4717 18.0271 18.044 18.449 18.466C18.871 18.8879 19.4433 19.125 20.04 19.125C20.6367 19.125 21.209 18.8879 21.631 18.466C22.0529 18.044 22.29 17.4717 22.29 16.875V16.755L27.75 11.25C28.195 11.25 28.63 11.118 29 10.8708C29.37 10.6236 29.6584 10.2722 29.8287 9.86104C29.999 9.4499 30.0436 8.9975 29.9568 8.56105C29.87 8.12459 29.6557 7.72368 29.341 7.40901C29.0263 7.09434 28.6254 6.88005 28.189 6.79323C27.7525 6.70642 27.3001 6.75097 26.889 6.92127C26.4778 7.09157 26.1264 7.37996 25.8792 7.74997C25.632 8.11998 25.5 8.55499 25.5 9C25.4927 9.07482 25.4927 9.15018 25.5 9.225L20.085 14.64H19.845L17.25 12C17.25 11.4033 17.0129 10.831 16.591 10.409C16.169 9.98705 15.5967 9.75 15 9.75C14.4033 9.75 13.831 9.98705 13.409 10.409C12.9871 10.831 12.75 11.4033 12.75 12L8.25 16.5C7.65326 16.5 7.08097 16.7371 6.65901 17.159C6.23705 17.581 6 18.1533 6 18.75C6 19.3467 6.23705 19.919 6.65901 20.341C7.08097 20.7629 7.65326 21 8.25 21V21ZM28.5 27H3V1.5C3 1.10218 2.84196 0.720644 2.56066 0.43934C2.27936 0.158035 1.89782 0 1.5 0C1.10218 0 0.720644 0.158035 0.43934 0.43934C0.158035 0.720644 0 1.10218 0 1.5V28.5C0 28.8978 0.158035 29.2794 0.43934 29.5607C0.720644 29.842 1.10218 30 1.5 30H28.5C28.8978 30 29.2794 29.842 29.5607 29.5607C29.842 29.2794 30 28.8978 30 28.5C30 28.1022 29.842 27.7206 29.5607 27.4393C29.2794 27.158 28.8978 27 28.5 27Z" fill="#14B082"/>
</svg>
