<svg width="28" height="32" viewBox="0 0 28 32" fill="none" xmlns="http://www.w3.org/2000/svg">
<path d="M9.49661 9.95306C9.66148 9.78606 9.84091 9.6341 10.0328 9.49899C11.1157 8.62644 12.4691 8.15876 13.8598 8.17651C15.2649 8.16919 16.6287 8.6513 17.717 9.54002C17.8834 9.66083 18.0391 9.79581 18.1822 9.94346C19.0833 10.8383 19.6884 11.9878 19.9159 13.2372L19.9179 13.2483V13.2596V13.3702V13.371V13.3718V13.3725V13.3733V13.3741V13.3748V13.3756V13.3764V13.3771V13.3779V13.3787V13.3794V13.3802V13.381V13.3817V13.3825V13.3833V13.384V13.3848V13.3856V13.3863V13.3871V13.3879V13.3886V13.3894V13.3902V13.3909V13.3917V13.3924V13.3932V13.394V13.3947V13.3955V13.3963V13.397V13.3978V13.3986V13.3993V13.4001V13.4009V13.4016V13.4024V13.4032V13.4039V13.4047V13.4055V13.4062V13.407V13.4078V13.4085V13.4093V13.4101V13.4108V13.4116V13.4124V13.4131V13.4139V13.4147V13.4154V13.4162V13.417V13.4177V13.4185V13.4193V13.42V13.4208V13.4216V13.4223V13.4231V13.4239V13.4246V13.4254V13.4262V13.4269V13.4277V13.4285V13.4292V13.43V13.4308V13.4315V13.4323V13.4331V13.4338V13.4346V13.4353V13.4361V13.4369V13.4376V13.4384V13.4392V13.4399V13.4407V13.4415V13.4422V13.443V13.4438V13.4445V13.4453V13.4461V13.4468V13.4476V13.4484V13.4491V13.4499V13.4507V13.4514V13.4522V13.453V13.4537V13.4545V13.4553V13.456V13.4568V13.4576V13.4583V13.4591V13.4599V13.4606V13.4614V13.4622V13.4629V13.4637V13.4645V13.4652V13.466V13.4668V13.4675V13.4683V13.4691V13.4698V13.4706V13.4714V13.4721V13.4729V13.4737V13.4744V13.4752V13.4759V13.4767V13.4775V13.4782V13.479V13.4798V13.4805V13.4813V13.4821V13.4828V13.4836V13.4844V13.4851V13.4859V13.4867V13.4874V13.4882V13.489V13.4897V13.4905V13.4913V13.492V13.4928V13.4936V13.4943V13.4951V13.4959V13.4966V13.4974V13.4982V13.4989V13.4997V13.5005V13.5012V13.502V13.5028V13.5035V13.5043V13.5051V13.5058V13.5066V13.5074V13.5081V13.5089V13.5097V13.5104V13.5112V13.512V13.5127V13.5135V13.5143V13.515V13.5158V13.5166V13.5173V13.5181V13.5188V13.5196V13.5204V13.5211V13.5219V13.5227V13.5234V13.5242V13.525V13.5257V13.5265V13.5273V13.528V13.5288V13.5296V13.5303V13.5311V13.5319V13.5326V13.5334V13.5342V13.5349V13.5357V13.5365V13.5372V13.538V13.5388V13.5395V13.5403V13.5411V13.5418V13.5426V13.5434V13.5441V13.5449V13.5457V13.5464V13.5472V13.548V13.5487V13.5495V13.5503V13.551V13.5518V13.5526V13.5533V13.5541V13.5549V13.5556V13.5564V13.5572V13.5579V13.5587V13.5595V13.5602V13.561V13.5617V13.5625V13.5633V13.564V13.5648V13.5656V13.5663V13.5671V13.5679V13.5686V13.5694V13.5702V13.5709V13.5717V13.5725V13.5732V13.574V13.5748V13.5755V13.5763V13.5771V13.5778V13.5786V13.5794V13.5801V13.5809V13.5817V13.5824V13.5832V13.584V13.5847V13.5855V13.5863V13.587V13.5878V13.5886V13.5893V13.5901V13.5909V13.5916V13.5924V13.5932V13.5939V13.5947V13.5955V13.5962V13.597V13.5978V13.5985V13.5993V13.6001V13.6008V13.6016V13.6023V13.6031V13.6039V13.6046V13.6054V13.6062V13.6069V13.6077V13.6085V13.6092V13.61V13.6108V13.6115V13.6123V13.6131V13.6138V13.6146V13.6154V13.6161V13.6169V13.6177V13.6184V13.6192V13.62V13.6207V13.6215V13.6223V13.623V13.6238V13.6246V13.6253V13.6261V13.6269V13.6276V13.6284V13.6292V13.6299V13.6307V13.6315V13.6322V13.633V13.6338V13.6345V13.6353V13.6361V13.6368V13.6376V13.6384V13.6391V13.6399V13.6407V13.6414V13.6422V13.643V13.6437V13.6445V13.6452V13.646V13.6468V13.6475V13.6483V13.6491V13.6498V13.6506V13.6514V13.6521V13.6529V13.6537V13.6544V13.6552V13.656V13.6567V13.6575V13.6583V13.659V13.6598V13.6606V13.6613V13.6621V13.6629V13.6636V13.6644V13.6652V13.6659V13.6667V13.6675V13.6682V13.669V13.6698V13.6705V13.6713V13.6721V13.6728V13.6736V13.6744V13.6751V13.6759V13.6767V13.6774V13.6782V13.679V13.6797V13.6805V13.6813V13.682V13.6828V13.6836V13.6843V13.6851V13.6858V13.6866V13.6874V13.6881V13.6889V13.6897V13.6904V13.6912V13.692V13.6927V13.6935V13.6943V13.695V13.6958V13.6966V13.6973V13.6981V13.6989V13.6996V13.7004V13.7012V13.7019V13.7027V13.7035V13.7042V13.705V13.7058V13.7065V13.7073V13.7081V13.7088V13.7096V13.7104V13.7111V13.7119V13.7127V13.7134V13.7142V13.715V13.7157V13.7165V13.7173V13.718V13.7188V13.7196V13.7203V13.7211V13.7219V13.7226V13.7234V13.7242V13.7249V13.7257V13.7265V13.7272V13.728V13.7287V13.7295V13.7303V13.731V13.7318V13.7326V13.7333V13.7341V13.7349V13.7356V13.7364V13.7372V13.7379V13.7387V13.7395V13.7402V13.741V13.7418V13.7425V13.7433V13.7441V13.7448V13.7456V13.7464V13.7471V13.7479V13.7487V13.7494V13.7502V13.751V13.7517V13.7525V13.7533V13.754V13.7548V13.7556V13.7563V13.7571V13.7579V13.7584C19.9303 13.952 19.9303 14.1462 19.9179 14.3398C19.9163 15.6484 19.4979 16.9225 18.7233 17.9774C17.948 19.0333 16.8562 19.8145 15.6065 20.2075C15.4109 20.2693 15.2058 20.3205 15.0013 20.3615C14.6267 20.4439 14.2448 20.4886 13.8613 20.4949L13.8593 20.3699L13.8593 20.4949C13.4632 20.4948 13.068 20.457 12.6791 20.382C12.6791 20.382 12.6791 20.382 12.6791 20.382L9.49661 9.95306ZM9.49661 9.95306C8.58984 10.8513 7.98461 12.0091 7.76444 13.2661C7.70005 13.4355 7.70008 13.6104 7.7001 13.7168L7.7001 13.7183C7.6872 13.9252 7.68721 14.1327 7.7001 14.3396C7.70076 15.6582 8.12457 16.9419 8.90927 18.0017C9.6947 19.0625 10.8001 19.8429 12.0626 20.2279L9.49661 9.95306ZM13.8588 10.4379L13.8598 10.4379C14.8047 10.4339 15.719 10.7732 16.4324 11.3929L16.4321 11.3932L16.4407 11.3995C16.5213 11.4582 16.5965 11.524 16.6653 11.5961L16.6653 11.5961L16.6676 11.5983C17.2233 12.1509 17.6024 12.8559 17.7571 13.624V13.624V13.6246V13.6252V13.6258V13.6264V13.627V13.6276V13.6282V13.6288V13.6294V13.63V13.6306V13.6312V13.6318V13.6324V13.633V13.6336V13.6342V13.6348V13.6354V13.636V13.6366V13.6372V13.6378V13.6384V13.639V13.6396V13.6402V13.6408V13.6414V13.642V13.6426V13.6432V13.6438V13.6444V13.645V13.6456V13.6462V13.6468V13.6474V13.648V13.6486V13.6492V13.6498V13.6505V13.6511V13.6517V13.6523V13.6529V13.6535V13.6541V13.6547V13.6553V13.6559V13.6565V13.6571V13.6578V13.6584V13.659V13.6596V13.6602V13.6608V13.6614V13.662V13.6627V13.6633V13.6639V13.6645V13.6651V13.6657V13.6663V13.667V13.6676V13.6682V13.6688V13.6694V13.67V13.6707V13.6713V13.6719V13.6725V13.6731V13.6738V13.6744V13.675V13.6756V13.6762V13.6769V13.6775V13.6781V13.6787V13.6794V13.68V13.6806V13.6812V13.6819V13.6825V13.6831V13.6837V13.6844V13.685V13.6856V13.6862V13.6869V13.6875V13.6881V13.6888V13.6894V13.69V13.6906V13.6913V13.6919V13.6925V13.6932V13.6938V13.6944V13.6951V13.6957V13.6963V13.697V13.6976V13.6982V13.6989V13.6995V13.7002V13.7008V13.7014V13.7021V13.7027V13.7033V13.704V13.7046V13.7053V13.7059V13.7065V13.7072V13.7078V13.7085V13.7091V13.7098V13.7104V13.711V13.7117V13.7123V13.713V13.7136V13.7143V13.7149V13.7156V13.7162V13.7169V13.7175V13.7182V13.7188V13.7195V13.7201V13.7208V13.7214V13.7221V13.7227V13.7234V13.724V13.7247V13.7253V13.726V13.7266V13.7273V13.7279V13.7286V13.7293V13.7299V13.7306V13.7312V13.7319V13.7326V13.7332V13.7339V13.7345V13.7352V13.7359V13.7365V13.7372V13.7378V13.7385V13.7392V13.7398V13.7405V13.7412V13.7418V13.7425V13.7432V13.7438V13.7445V13.7452V13.7458V13.7465V13.7472V13.7479V13.7485V13.7492V13.7499V13.7506V13.7512V13.7519V13.7526V13.7533V13.7539V13.7546V13.7553V13.756V13.7566V13.7573V13.758V13.7587V13.7594V13.76V13.7607V13.7614V13.7621V13.7628V13.7634V13.7641V13.7648V13.7655V13.7662V13.7669V13.7676V13.7682V13.7689V13.7696V13.7703V13.771V13.7717V13.7724V13.7731V13.7738V13.7745V13.7752V13.7758V13.7765V13.7772V13.7779V13.7786V13.7793V13.78V13.7807V13.7814V13.7821V13.7828V13.7835V13.7842V13.7849V13.7856V13.7863V13.787V13.7877V13.7884V13.7891V13.7898V13.7906V13.7913V13.792V13.7927V13.7934V13.7941V13.7948V13.7955V13.7962V13.7969V13.7977V13.7984V13.7991V13.7998V13.8005V13.8012V13.8019V13.8027V13.8034V13.8041V13.8048V13.8055V13.8063V13.807V13.8077V13.8084V13.8091V13.8099V13.8106V13.8113V13.812V13.8128V13.8135V13.8142V13.8149V13.8157V13.8164V13.8171V13.8179V13.8186V13.8193V13.8201V13.8208V13.8215V13.8223V13.823V13.8237V13.8245V13.8252V13.8259V13.8267V13.8274V13.8282V13.8289V13.8296V13.8304V13.8311V13.8319V13.8326V13.8333V13.8341V13.8348V13.8356V13.8363V13.8371V13.8378V13.8386V13.8393V13.8401V13.8408V13.8416V13.8423V13.8431V13.8438V13.8446V13.8454V13.8461V13.8469V13.8476V13.8484V13.8491V13.8499V13.8507V13.8514V13.8522V13.853V13.8537V13.8545V13.8552V13.856V13.8568V13.8575V13.8583V13.8591V13.8598V13.8606V13.8614V13.8622V13.8629V13.8637V13.8645V13.8653V13.866V13.8668V13.8676V13.8684V13.8691V13.8699V13.8707V13.8715V13.8723V13.873V13.8738V13.8746V13.8754V13.8762V13.877V13.8777V13.8785V13.8793V13.8801V13.8809V13.8817V13.8825V13.8833V13.8841V13.8849V13.8857V13.8865V13.8872V13.888V13.8888V13.8896V13.8904V13.8912V13.892V13.8928V13.8936V13.8944V13.8952V13.8961V13.8969V13.8977V13.8985V13.8993V13.9001V13.9009V13.9017V13.9025V13.9033V13.9041V13.905V13.9058V13.9066V13.9074V13.9082V13.909V13.9099V13.9107V13.9115V13.9123V13.9131V13.914V13.9148V13.9156V13.9164V13.9173V13.9181V13.9189V13.9197V13.9206V13.9214V13.9222V13.9231V13.9239V13.9247V13.9256V13.9264V13.9272V13.9281V13.9289V13.9297V13.9306V13.9314V13.9323V13.9331V13.9339V13.9348V13.9356V13.9365V13.9373V13.9382V13.939V13.9399V13.9407V13.9416V13.9424V13.9433V13.9441V13.945V13.9458V13.9467V13.9475V13.9484V13.9493V13.9501V13.951V13.9518V13.9527V13.9536V13.9544V13.9553V13.9562V13.957V13.9579V13.9588V13.9596V13.9605V13.9614V13.9622V13.9631V13.964V13.9649V13.9657V13.9666V13.9675V13.9684V13.9692V13.9701V13.971V13.9719V13.9728V13.9737H17.7568L17.7573 13.9818C17.7649 14.0969 17.7649 14.2124 17.7573 14.3275L17.7571 14.3275L17.7571 14.3359C17.7586 15.1649 17.4958 15.9727 17.0069 16.6421C16.5187 17.3105 15.8304 17.8062 15.0417 18.0573L14.6161 18.1662C14.1153 18.2653 13.5999 18.265 13.0992 18.1655L13.099 18.1654C12.9711 18.1403 12.8447 18.1079 12.7205 18.0684L12.7192 18.068C11.9218 17.8241 11.2237 17.3309 10.7273 16.6609C10.231 15.9909 9.96255 15.1794 9.9615 14.3456L9.96173 14.3456L9.96126 14.3381C9.95292 14.2025 9.95292 14.0666 9.96126 13.931L9.9615 13.9311V13.9234V13.9228V13.9222V13.9216V13.921V13.9204V13.9198V13.9192V13.9187V13.9181V13.9175V13.9169V13.9163V13.9157V13.9151V13.9145V13.9139V13.9134V13.9128V13.9122V13.9116V13.911V13.9104V13.9098V13.9092V13.9086V13.908V13.9075V13.9069V13.9063V13.9057V13.9051V13.9045V13.9039V13.9033V13.9027V13.9022V13.9016V13.901V13.9004V13.8998V13.8992V13.8986V13.898V13.8974V13.8969V13.8963V13.8957V13.8951V13.8945V13.8939V13.8933V13.8927V13.8921V13.8916V13.891V13.8904V13.8898V13.8892V13.8886V13.888V13.8874V13.8869V13.8863V13.8857V13.8851V13.8845V13.8839V13.8833V13.8827V13.8821V13.8816V13.881V13.8804V13.8798V13.8792V13.8786V13.878V13.8774V13.8769V13.8763V13.8757V13.8751V13.8745V13.8739V13.8733V13.8727V13.8721V13.8716V13.871V13.8704V13.8698V13.8692V13.8686V13.868V13.8675V13.8669V13.8663V13.8657V13.8651V13.8645V13.8639V13.8633V13.8628V13.8622V13.8616V13.861V13.8604V13.8598V13.8592V13.8586V13.8581V13.8575V13.8569V13.8563V13.8557V13.8551V13.8545V13.854V13.8534V13.8528V13.8522V13.8516V13.851V13.8504V13.8499V13.8493V13.8487V13.8481V13.8475V13.8469V13.8463V13.8458V13.8452V13.8446V13.844V13.8434V13.8428V13.8422V13.8417V13.8411V13.8405V13.8399V13.8393V13.8387V13.8382V13.8376V13.837V13.8364V13.8358V13.8352V13.8346V13.8341V13.8335V13.8329V13.8323V13.8317V13.8311V13.8306V13.83V13.8294V13.8288V13.8282V13.8276V13.8271V13.8265V13.8259V13.8253V13.8247V13.8241V13.8236V13.823V13.8224V13.8218V13.8212V13.8206V13.8201V13.8195V13.8189V13.8183V13.8177V13.8172V13.8166V13.816V13.8154V13.8148V13.8142V13.8137V13.8131V13.8125V13.8119V13.8113V13.8108V13.8102V13.8096V13.809V13.8084V13.8079V13.8073V13.8067V13.8061V13.8055V13.805V13.8044V13.8038V13.8032V13.8026V13.8021V13.8015V13.8009V13.8003V13.7997V13.7992V13.7986V13.798V13.7974V13.7968V13.7963V13.7957V13.7951V13.7945V13.7939V13.7934V13.7928V13.7922V13.7916V13.7911V13.7905V13.7899V13.7893V13.7887V13.7882V13.7876V13.787V13.7864V13.7859V13.7853V13.7847V13.7841V13.7836V13.783V13.7824V13.7818V13.7812V13.7807V13.7801V13.7795V13.7789V13.7784V13.7778V13.7772V13.7766V13.7761V13.7755V13.7749V13.7743V13.7738V13.7732V13.7726V13.772V13.7715V13.7709V13.7703V13.7698V13.7692V13.7686V13.768V13.7675V13.7669V13.7663V13.7657V13.7652V13.7646V13.764V13.7634V13.7629V13.7623V13.7617V13.7612V13.7606V13.76V13.7594V13.7589V13.7583V13.7577V13.7572V13.7566V13.756V13.7554V13.7549V13.7543V13.7537V13.7532V13.7526V13.752V13.7515V13.7509V13.7503V13.7497V13.7492V13.7486V13.748V13.7475V13.7469V13.7463V13.7458V13.7452V13.7446V13.7441V13.7435V13.7429V13.7424V13.7418V13.7412V13.7407V13.7401V13.7395V13.739V13.7384V13.7378V13.7373V13.7367V13.7361V13.7356V13.735V13.7344V13.7339V13.7333V13.7327V13.7322V13.7316V13.731V13.7305V13.7299V13.7293V13.7288V13.7282V13.7276V13.7271V13.7265V13.726V13.7254V13.7248V13.7243V13.7237V13.7231V13.7226V13.722V13.7215V13.7209V13.7203V13.7198V13.7192V13.7186V13.7181V13.7175V13.717V13.7164V13.7158V13.7153V13.7147V13.7142V13.7136V13.713V13.7125V13.7119V13.7114V13.7108V13.7102V13.7097V13.7091V13.7086V13.708V13.7075V13.7069V13.7063V13.7058V13.7052V13.7047V13.7041V13.7036V13.703V13.7024V13.7019V13.7013V13.7008V13.7002V13.6997V13.6991V13.6985V13.698V13.6974V13.6969V13.6963V13.6958V13.6952V13.6947V13.6941V13.6936V13.693V13.6925V13.6919V13.6913V13.6908V13.6902V13.6897V13.6891V13.6886V13.688V13.6875V13.6869V13.6864V13.6858V13.6853V13.6847V13.6842V13.6836V13.6831V13.6825V13.682V13.6814V13.6809V13.6803V13.6798V13.6792V13.6787V13.6781V13.6776V13.677V13.6765V13.6759V13.6754V13.6748V13.6743V13.6737V13.6732V13.6727V13.6721V13.6716V13.671V13.6705V13.6699V13.6694V13.6688V13.6683V13.6677V13.6672V13.6667V13.6661V13.6488V13.6483V13.6477V13.6472V13.6467V13.6461V13.6456V13.645V13.6445V13.644V13.6439C10.121 12.8411 10.5293 12.1088 11.1285 11.5509L11.1286 11.5509L11.1313 11.5482C11.2194 11.461 11.3148 11.3814 11.4166 11.3105L11.4168 11.3108L11.4244 11.3045C12.11 10.7407 12.9711 10.4342 13.8588 10.4379ZM12.6826 18.1875L12.6826 18.1875L12.6826 18.1875Z" fill="#45C646" stroke="#45C646" stroke-width="0.25"/>
<path d="M12.8535 19.2388H12.7285L14.8649 29.1894H14.9899V29.1888V19.3638V19.2388H14.8649H12.8535Z" fill="#45C646" stroke="#45C646" stroke-width="0.25"/>
<path d="M17.8618 28.8638H9.81624C9.19178 28.8638 8.68555 29.37 8.68555 29.9945C8.68555 30.6189 9.19178 31.1252 9.81624 31.1252H17.8618C18.4863 31.1252 18.9925 30.6189 18.9925 29.9945C18.9925 29.37 18.4863 28.8638 17.8618 28.8638Z" fill="#45C646" stroke="#45C646" stroke-width="0.25"/>
<path d="M10.9539 0.875037C10.6106 0.873124 10.2709 0.945259 9.95799 1.08653C9.64499 1.22784 9.36615 1.43501 9.1405 1.6939C8.91485 1.95279 8.74771 2.25731 8.65046 2.58668C8.55322 2.91603 8.52817 3.26248 8.577 3.6024C8.57701 3.60242 8.57701 3.60244 8.57701 3.60246L9.82406 12.3519L9.85533 12.5713L10.0269 12.431L11.4037 11.3054C11.4039 11.3053 11.4041 11.3052 11.4043 11.305C12.0955 10.7518 12.9545 10.4504 13.8399 10.4504C14.7252 10.4504 15.5842 10.7518 16.2754 11.305C16.2756 11.3052 16.2758 11.3053 16.276 11.3054L17.6528 12.431L17.8242 12.5712L17.8556 12.352L19.1025 3.65401C19.1026 3.65377 19.1026 3.65353 19.1026 3.65329C19.1544 3.31642 19.1329 2.97234 19.0395 2.64455C18.9462 2.31699 18.7833 2.01343 18.562 1.75458C18.3406 1.48399 18.0628 1.26506 17.748 1.11313C17.4327 0.960993 17.088 0.879729 16.7379 0.875048V0.875037H16.7363H10.9539ZM10.9539 0.875037C10.954 0.875038 10.9541 0.875038 10.9542 0.875039L10.9535 1.00004M10.9539 0.875037H10.9535V1.00004M10.9535 1.00004H16.7363L8.70074 3.58468C8.65445 3.26254 8.67819 2.93421 8.77035 2.62208C8.8625 2.30995 9.0209 2.02137 9.23473 1.77603C9.44857 1.5307 9.71281 1.33437 10.0094 1.20045C10.306 1.06653 10.6281 0.998174 10.9535 1.00004ZM10.9519 3.12637L10.9533 3.12638L16.736 3.13645L16.7378 3.13642C16.7577 3.13617 16.7774 3.14027 16.7956 3.14843C16.8137 3.15659 16.8298 3.16862 16.8428 3.18367L16.9374 3.10196L16.8426 3.18337C16.8518 3.19409 16.8585 3.2067 16.8623 3.22031C16.8661 3.23392 16.8668 3.2482 16.8644 3.26212L16.8644 3.26212L16.8639 3.26533L16.102 8.60855C15.3811 8.32864 14.6141 8.18478 13.8399 8.18478C13.0656 8.18478 12.2985 8.32865 11.5777 8.60857L10.8158 3.27535L10.8158 3.27535L10.8155 3.27329C10.8127 3.25598 10.8139 3.23826 10.8189 3.22147C10.8239 3.20468 10.8327 3.18924 10.8445 3.17631L10.8446 3.17635L10.847 3.17361C10.86 3.15856 10.8761 3.14654 10.8942 3.13838C10.9124 3.13022 10.9321 3.12612 10.9519 3.12637ZM16.7363 3.01143L10.9535 3.00138L16.7363 3.01143Z" fill="#45C646" stroke="#45C646" stroke-width="0.25"/>
<path d="M20.8385 25.5336H20.8388H20.9092V25.5337L20.9134 25.5335C21.2597 25.5217 21.5993 25.4349 21.9089 25.2792C22.2182 25.1237 22.4901 24.903 22.706 24.6323C22.7062 24.6321 22.7064 24.6319 22.7065 24.6317L26.3864 20.1375L26.2896 20.0583L26.3874 20.1362C26.6022 19.8669 26.7568 19.5545 26.8406 19.2203C26.9244 18.8861 26.9355 18.5378 26.8732 18.199C26.8108 17.8601 26.6765 17.5386 26.4792 17.2561C26.2819 16.9736 26.0263 16.7367 25.7297 16.5614L25.7292 16.5612L17.6837 11.8545L17.4637 11.7259L17.4966 11.9785L17.7575 13.9859C17.7648 14.0997 17.7647 14.2139 17.7573 14.3277L17.7571 14.3277L17.757 14.3353C17.7531 15.1633 17.4856 15.9686 16.9933 16.6343C16.5009 17.3001 15.8094 17.7918 15.0188 18.0382L15.0184 18.0383L13.4897 18.521L13.3004 18.5808L13.4361 18.7257L19.087 24.7587C19.0872 24.7589 19.0874 24.7591 19.0876 24.7593C19.3098 25.0026 19.58 25.197 19.8813 25.3303C20.1828 25.4637 20.5088 25.5329 20.8385 25.5336ZM19.8481 15.7378L24.5263 18.4863C24.5263 18.4863 24.5264 18.4863 24.5264 18.4864C24.5426 18.496 24.5565 18.5092 24.5669 18.5249C24.5775 18.5406 24.5843 18.5585 24.5869 18.5773L24.5867 18.5773L24.5884 18.5855C24.5927 18.6062 24.5926 18.6276 24.5879 18.6482C24.5833 18.6685 24.5744 18.6875 24.5619 18.7041L20.9523 23.2186L20.9523 23.2186L20.9514 23.2197C20.9389 23.2357 20.923 23.2487 20.9049 23.2578C20.8867 23.2669 20.8667 23.2718 20.8464 23.2722L20.8464 23.2722L20.8449 23.2722C20.8257 23.2728 20.8066 23.2691 20.7891 23.2612C20.7716 23.2533 20.7561 23.2415 20.7438 23.2267L20.744 23.2266L20.7388 23.2211L17.2315 19.4891C17.8888 19.0571 18.4578 18.503 18.9072 17.8563C19.3524 17.2156 19.6715 16.4966 19.8481 15.7378Z" fill="#45C646" stroke="#45C646" stroke-width="0.25"/>
<path d="M6.81518 25.5334L6.81517 25.5334H6.81945H6.87979V25.4084L6.88116 25.5334C7.21866 25.5297 7.55147 25.4539 7.85729 25.3111C8.1622 25.1687 8.43325 24.9629 8.65236 24.7075L14.3225 18.6754L14.4599 18.5292L14.2681 18.4703L12.7294 17.9976L12.7293 17.9976C11.9319 17.7537 11.2338 17.2605 10.7374 16.5905C10.2411 15.9205 9.97265 15.109 9.9716 14.2752L9.97183 14.2752L9.97136 14.2676C9.9641 14.1501 9.96402 14.0323 9.97112 13.9148L10.2221 11.9074L10.2538 11.6534L10.034 11.7845L2.03871 16.5515L2.03811 16.5519C1.74473 16.729 1.49255 16.9668 1.29844 17.2493C1.10433 17.5317 0.972746 17.8524 0.912497 18.1898C0.852249 18.5272 0.864719 18.8735 0.949073 19.2057C1.03343 19.5379 1.18772 19.8482 1.40165 20.116L1.40178 20.1162L5.02207 24.6315C5.02212 24.6316 5.02217 24.6316 5.02223 24.6317C5.23817 24.9025 5.51025 25.1234 5.81972 25.2791C6.12927 25.4347 6.46888 25.5215 6.81518 25.5334ZM7.83577 15.7278C8.01259 16.4975 8.3359 17.2265 8.78856 17.8748C9.24135 18.5233 9.81454 19.0781 10.4764 19.5093L6.95979 23.2409L6.95968 23.2408L6.95577 23.2454C6.94501 23.258 6.93148 23.2678 6.91623 23.2743C6.90098 23.2807 6.88445 23.2835 6.86794 23.2824L6.86703 23.2823C6.84763 23.2812 6.82869 23.2759 6.81149 23.2668C6.79429 23.2578 6.77922 23.2452 6.76729 23.2298L6.7673 23.2298L6.76631 23.2286L3.15586 18.7029L3.15532 18.7023C3.14344 18.6876 3.135 18.6704 3.13063 18.652C3.12625 18.6337 3.12605 18.6145 3.13004 18.5961L3.13022 18.5961L3.13128 18.5895C3.13438 18.5701 3.14161 18.5517 3.15248 18.5354C3.1632 18.5193 3.1772 18.5057 3.19356 18.4954L7.83577 15.7278Z" fill="#45C646" stroke="#45C646" stroke-width="0.25"/>
</svg>
