<svg width="32" height="34" viewBox="0 0 32 34" fill="none" xmlns="http://www.w3.org/2000/svg">
<path fill-rule="evenodd" clip-rule="evenodd" d="M29.3563 10.3429L28.3849 8.65714C27.5631 7.23077 25.7418 6.73871 24.3135 7.55714C23.6336 7.95766 22.8223 8.0713 22.0585 7.87298C21.2947 7.67467 20.6412 7.1807 20.2421 6.5C19.9853 6.06734 19.8473 5.57453 19.8421 5.07143C19.8652 4.26482 19.5609 3.48319 18.9985 2.90458C18.436 2.32597 17.6633 1.99967 16.8563 2H14.8992C14.1086 2 13.3507 2.31501 12.793 2.87536C12.2354 3.4357 11.924 4.19517 11.9278 4.98572C11.9043 6.61792 10.5744 7.92874 8.94206 7.92857C8.43896 7.92335 7.94615 7.78536 7.51349 7.52857C6.08517 6.71014 4.26389 7.2022 3.44206 8.62857L2.3992 10.3429C1.57837 11.7674 2.06373 13.5876 3.48492 14.4143C4.40871 14.9476 4.97779 15.9333 4.97779 17C4.97779 18.0667 4.40871 19.0524 3.48492 19.5857C2.06554 20.4069 1.57964 22.2226 2.3992 23.6429L3.38492 25.3429C3.76998 26.0377 4.41605 26.5504 5.18016 26.7675C5.94427 26.9847 6.76342 26.8884 7.45635 26.5C8.13753 26.1025 8.94927 25.9936 9.71114 26.1975C10.473 26.4014 11.1219 26.9011 11.5135 27.5857C11.7703 28.0184 11.9083 28.5112 11.9135 29.0143C11.9135 30.6633 13.2502 32 14.8992 32H16.8563C18.4997 32 19.8342 30.672 19.8421 29.0286C19.8382 28.2355 20.1516 27.4739 20.7123 26.9131C21.2731 26.3524 22.0347 26.039 22.8278 26.0429C23.3297 26.0563 23.8204 26.1937 24.2563 26.4429C25.6809 27.2637 27.5011 26.7783 28.3278 25.3571L29.3563 23.6429C29.7545 22.9595 29.8638 22.1456 29.66 21.3814C29.4562 20.6172 28.9562 19.9658 28.2706 19.5714C27.5851 19.177 27.0851 18.5256 26.8813 17.7614C26.6775 16.9973 26.7868 16.1834 27.1849 15.5C27.4438 15.048 27.8186 14.6732 28.2706 14.4143C29.6833 13.588 30.1675 11.7785 29.3563 10.3571V10.3429Z" stroke="#F23936" stroke-width="3" stroke-linecap="round" stroke-linejoin="round"/>
<path d="M15.8846 21.1138C18.1567 21.1138 19.9986 19.2719 19.9986 16.9998C19.9986 14.7277 18.1567 12.8857 15.8846 12.8857C13.6124 12.8857 11.7705 14.7277 11.7705 16.9998C11.7705 19.2719 13.6124 21.1138 15.8846 21.1138Z" stroke="#F23936" stroke-width="3" stroke-linecap="round" stroke-linejoin="round"/>
</svg>
