<svg width="32" height="32" viewBox="0 0 32 32" fill="none" xmlns="http://www.w3.org/2000/svg">
<path d="M13.9821 13.3217V13.3214C13.9821 12.3431 13.692 11.3868 13.1485 10.5733C12.605 9.75991 11.8325 9.12591 10.9286 8.75153C10.0248 8.37714 9.03023 8.27919 8.07071 8.47005C7.1112 8.66091 6.22983 9.13201 5.53806 9.82378C4.84629 10.5155 4.37519 11.3969 4.18433 12.3564C3.99347 13.3159 4.09143 14.3105 4.46581 15.2143C4.84019 16.1182 5.47419 16.8907 6.28762 17.4342C7.10106 17.9778 8.0574 18.2679 9.03571 18.2679V18.1429L9.03599 18.2679C10.3469 18.265 11.6033 17.7429 12.5302 16.816C13.4572 15.889 13.9792 14.6326 13.9821 13.3217ZM19.75 12.9107H19.7502C21.3453 12.9078 22.8742 12.2729 24.0021 11.145C25.13 10.0171 25.765 8.48817 25.7679 6.89309V6.89286C25.7679 5.70264 25.4149 4.53915 24.7537 3.54952C24.0924 2.55989 23.1526 1.78856 22.0529 1.33308C20.9533 0.877607 19.7433 0.758434 18.576 0.990634C17.4086 1.22283 16.3363 1.79598 15.4947 2.63759C14.6531 3.4792 14.08 4.55148 13.8478 5.71883C13.6156 6.88618 13.7347 8.09617 14.1902 9.19579C14.6457 10.2954 15.417 11.2353 16.4067 11.8965C17.3963 12.5578 18.5598 12.9107 19.75 12.9107ZM7.61702 11.1982C8.03696 10.9176 8.53066 10.7679 9.03571 10.7679C9.37105 10.7679 9.70311 10.8339 10.0129 10.9622C10.3227 11.0906 10.6042 11.2787 10.8414 11.5158C11.0785 11.7529 11.2666 12.0344 11.3949 12.3442C11.5232 12.654 11.5893 12.9861 11.5893 13.3214C11.5893 13.8265 11.4395 14.3202 11.1589 14.7401C10.8783 15.1601 10.4795 15.4874 10.0129 15.6806C9.54632 15.8739 9.03288 15.9245 8.53754 15.8259C8.04219 15.7274 7.58719 15.4842 7.23007 15.1271C6.87294 14.77 6.62974 14.315 6.53121 13.8196C6.43268 13.3243 6.48325 12.8108 6.67652 12.3442C6.86979 11.8776 7.19709 11.4788 7.61702 11.1982ZM17.7361 3.87878C18.3322 3.48046 19.033 3.26786 19.75 3.26786C20.7114 3.26786 21.6334 3.64978 22.3133 4.3296C22.9931 5.00942 23.375 5.93145 23.375 6.89286C23.375 7.60982 23.1624 8.31067 22.7641 8.9068C22.3658 9.50293 21.7996 9.96756 21.1372 10.2419C20.4748 10.5163 19.746 10.5881 19.0428 10.4482C18.3396 10.3083 17.6937 9.96309 17.1867 9.45612C16.6798 8.94916 16.3345 8.30324 16.1947 7.60006C16.0548 6.89688 16.1266 6.16801 16.4009 5.50563C16.6753 4.84325 17.1399 4.2771 17.7361 3.87878ZM6.89286 31.125H11.1786C12.7746 31.125 14.3053 30.491 15.4338 29.3624C16.5624 28.2338 17.1964 26.7032 17.1964 25.1071C17.1964 23.5111 16.5624 21.9804 15.4338 20.8519C14.3053 19.7233 12.7746 19.0893 11.1786 19.0893H6.89286C5.29682 19.0893 3.76616 19.7233 2.63759 20.8519C1.50902 21.9804 0.875 23.5111 0.875 25.1071C0.875 26.7032 1.50902 28.2338 2.63759 29.3624C3.76616 30.491 5.29682 31.125 6.89286 31.125ZM4.32959 22.5439C5.00941 21.8641 5.93145 21.4821 6.89286 21.4821H11.1786C12.14 21.4821 13.062 21.8641 13.7418 22.5439C14.4217 23.2237 14.8036 24.1457 14.8036 25.1071C14.8036 26.0686 14.4217 26.9906 13.7418 27.6704C13.062 28.3502 12.14 28.7321 11.1786 28.7321H6.89286C5.93145 28.7321 5.00941 28.3502 4.32959 27.6704C3.64978 26.9906 3.26786 26.0686 3.26786 25.1071C3.26786 24.1457 3.64978 23.2237 4.32959 22.5439Z" fill="#008EFF" stroke="#008EFF" stroke-width="0.25"/>
<path d="M11.7145 31.1251H22.9645C25.1289 31.1251 27.2046 30.2654 28.735 28.7349C30.2654 27.2045 31.1252 25.1288 31.1252 22.9644C31.1252 20.8001 30.2654 18.7244 28.735 17.1939C27.2046 15.6635 25.1289 14.8037 22.9645 14.8037H16.5359C16.2186 14.8037 15.9143 14.9298 15.6899 15.1541C15.4655 15.3785 15.3395 15.6828 15.3395 16.0001C15.3395 16.3175 15.4655 16.6218 15.6899 16.8461C15.9143 17.0705 16.2186 17.1966 16.5359 17.1966H22.9645C24.4942 17.1966 25.9613 17.8043 27.043 18.8859C28.1247 19.9676 28.7324 21.4347 28.7324 22.9644C28.7324 24.4942 28.1247 25.9612 27.043 27.0429C25.9613 28.1246 24.4942 28.7323 22.9645 28.7323H11.7145C11.3972 28.7323 11.0929 28.8583 10.8685 29.0827C10.6441 29.3071 10.5181 29.6114 10.5181 29.9287C10.5181 30.246 10.6441 30.5503 10.8685 30.7747C11.0929 30.9991 11.3972 31.1251 11.7145 31.1251Z" fill="#008EFF" stroke="#008EFF" stroke-width="0.25"/>
</svg>
