<svg width="27" height="32" viewBox="0 0 27 32" fill="none" xmlns="http://www.w3.org/2000/svg">
<path d="M22.6781 8.62057H22.9873L22.765 8.40569L19.0787 4.8425L18.8668 4.6377V4.93237V7.93882C18.8668 8.31604 19.2379 8.62057 19.6306 8.62057H22.6781Z" stroke="#4732BA" stroke-width="0.25"/>
<path d="M16.7726 3.3794V3.25475L16.648 3.2544L3.95408 3.21924V3.21924H3.95373C3.56713 3.21924 3.21924 3.54598 3.21924 3.93029V28.0639C3.21924 28.2585 3.31738 28.4391 3.45504 28.5682C3.59312 28.6978 3.78236 28.7867 3.98304 28.7867H23.8502C24.2764 28.7867 24.5085 28.4003 24.5085 28.0639V10.8398V10.7148H24.3835H19.6306C18.0498 10.7148 16.7726 9.46671 16.7726 7.93303V3.3794ZM17.5267 15.5947C18.1023 15.5947 18.5738 16.0661 18.5738 16.6418C18.5738 17.2174 18.1023 17.6889 17.5267 17.6889H7.27079C6.69516 17.6889 6.22368 17.2174 6.22368 16.6418C6.22368 16.0661 6.69516 15.5947 7.27079 15.5947H17.5267ZM7.21218 10.9062H14.0104C14.586 10.9062 15.0575 11.3777 15.0575 11.9533C15.0575 12.529 14.586 13.0004 14.0104 13.0004H7.21218C6.63656 13.0004 6.16508 12.529 6.16508 11.9533C6.16508 11.3777 6.63656 10.9062 7.21218 10.9062ZM20.457 22.3773H7.27079C6.69516 22.3773 6.22368 21.9058 6.22368 21.3302C6.22368 20.7546 6.69516 20.2831 7.27079 20.2831H20.457C21.0326 20.2831 21.5041 20.7546 21.5041 21.3302C21.5041 21.9058 21.0326 22.3773 20.457 22.3773Z" stroke="#4732BA" stroke-width="0.25"/>
<path d="M3.9537 0.875H3.95403L17.386 0.910163C17.3861 0.910163 17.3861 0.910163 17.3862 0.910163L17.3863 0.910164L17.386 1.03516L3.9537 0.875ZM3.9537 0.875C2.25642 0.875 0.875 2.24275 0.875 3.93026V28.0639C0.875 29.7229 2.29823 31.125 3.983 31.125H23.8502C25.51 31.125 26.8527 29.7478 26.8527 28.058V10.0018C26.8527 9.42494 26.6353 8.89373 26.2403 8.51129L26.1541 8.60031L26.2403 8.51128L19.1083 1.60781M3.9537 0.875L19.1083 1.60781M19.1083 1.60781L19.108 1.60759L19.1083 1.60781ZM19.1168 7.93299V5.22709L22.3689 8.3706H19.6306C19.3444 8.3706 19.1168 8.14847 19.1168 7.93299ZM23.8502 28.5308H3.983C3.85476 28.5308 3.72458 28.4741 3.62576 28.3819C3.52669 28.2896 3.46921 28.1715 3.46921 28.058V3.93026C3.46921 3.6934 3.69555 3.4693 3.95354 3.46921C3.95359 3.46921 3.95365 3.46921 3.9537 3.46921L16.5226 3.50403V7.93299C16.5226 9.60485 17.9177 10.9648 19.6306 10.9648H24.2585V28.058C24.2585 28.3076 24.0921 28.5308 23.8502 28.5308Z" fill="#4732BA" stroke="#4732BA" stroke-width="0.25"/>
<path d="M5.97364 16.6415C5.97364 17.3552 6.55706 17.9386 7.27075 17.9386H17.5267C18.2404 17.9386 18.8238 17.3552 18.8238 16.6415C18.8238 15.9278 18.2404 15.3444 17.5267 15.3444H7.27075C6.55706 15.3444 5.97364 15.9278 5.97364 16.6415ZM7.21214 13.2502H14.0103C14.724 13.2502 15.3075 12.6668 15.3075 11.9531C15.3075 11.2394 14.724 10.656 14.0103 10.656H7.21214C6.49845 10.656 5.91504 11.2394 5.91504 11.9531C5.91504 12.6668 6.49845 13.2502 7.21214 13.2502ZM20.4569 20.0328H7.27075C6.55706 20.0328 5.97364 20.6162 5.97364 21.3299C5.97364 22.0436 6.55706 22.627 7.27075 22.627H20.4569C21.1706 22.627 21.754 22.0436 21.754 21.3299C21.754 20.6162 21.1706 20.0328 20.4569 20.0328Z" fill="#4732BA" stroke="#4732BA" stroke-width="0.25"/>
</svg>
